<svg xmlns="http://www.w3.org/2000/svg" width="900" height="520" viewBox="0 0 900 520">
<rect width="100%" height="100%" fill="white"/>
<text x="80" y="28" font-family="Arial, sans-serif" font-size="20" font-weight="700" fill="#222">median: Trade - High tech</text>
<text x="80" y="48" font-family="Arial, sans-serif" font-size="13" fill="#555">score 0.969 | cum 7.22 | abs path 10.39 | peak share 0.20 | sig90 30 | robust true</text>
<line x1="80" y1="55" x2="80" y2="450" stroke="#555" stroke-width="1"/>
<line x1="80" y1="450" x2="870" y2="450" stroke="#555" stroke-width="1"/>
<line x1="80" y1="260.9524185838944" x2="870" y2="260.9524185838944" stroke="#999" stroke-width="1" stroke-dasharray="5 5"/>
<polygon points="80.0,256.260278387403 80.0,256.260278387403 104.6875,263.857786325142 104.6875,263.857786325142 129.375,173.34896665401305 129.375,173.34896665401305 154.0625,257.654810876542 154.0625,257.654810876542 178.75,240.04376269499554 178.75,240.04376269499554 203.4375,259.69079690937536 203.4375,259.69079690937536 228.125,235.91044717377395 228.125,235.91044717377395 252.8125,226.54736643864456 252.8125,226.54736643864456 277.5,253.68383341639952 277.5,253.68383341639952 302.1875,250.8647980432617 302.1875,250.8647980432617 326.875,264.46459229562794 326.875,264.46459229562794 351.5625,264.8753313247581 351.5625,264.8753313247581 376.25,256.63048076851464 376.25,256.63048076851464 400.9375,82.24137931034481 400.9375,82.24137931034481 450.3125,223.45465092384367 450.3125,223.45465092384367 475.0,248.61187289521447 475.0,248.61187289521447 549.0625,259.21994282919206 549.0625,259.21994282919206 647.8125,265.64271664690284 647.8125,265.64271664690284 771.25,257.2026236316816 771.25,257.2026236316816 845.3125,255.2631270399696 845.3125,255.2631270399696 870.0,262.82591309845 870.0,262.82591309845 870.0,263.35839284497604 870.0,263.35839284497604 845.3125,255.81000077541583 845.3125,255.81000077541583 771.25,257.78478985529864 771.25,257.78478985529864 647.8125,266.09928071843666 647.8125,266.09928071843666 549.0625,259.7288959984061 549.0625,259.7288959984061 475.0,252.6324031520698 475.0,252.6324031520698 450.3125,280.16807617508715 450.3125,280.16807617508715 400.9375,422.7586206896552 400.9375,422.7586206896552 376.25,281.1971561610164 376.25,281.1971561610164 351.5625,266.40539732684977 351.5625,266.40539732684977 326.875,265.3501263339706 326.875,265.3501263339706 302.1875,251.79631683275235 302.1875,251.79631683275235 277.5,271.7193646813965 277.5,271.7193646813965 252.8125,230.7073936687483 252.8125,230.7073936687483 228.125,262.4902040273852 228.125,262.4902040273852 203.4375,260.2105596683068 203.4375,260.2105596683068 178.75,293.5789496573 178.75,293.5789496573 154.0625,259.2527748450164 154.0625,259.2527748450164 129.375,177.90288337971992 129.375,177.90288337971992 104.6875,265.62477446032085 104.6875,265.62477446032085 80.0,258.1842773027737 80.0,258.1842773027737" fill="#c9d7ee" opacity="0.55"/>
<polyline points="80.0,256.91954364948435 80.0,256.91954364948435 104.6875,264.6759020216752 104.6875,264.6759020216752 129.375,175.44685811098105 129.375,175.44685811098105 154.0625,258.46475745939244 154.0625,258.46475745939244 178.75,263.5612105341329 178.75,263.5612105341329 203.4375,259.9357008793 203.4375,259.9357008793 228.125,252.73799096902852 228.125,252.73799096902852 252.8125,228.846659051542 252.8125,228.846659051542 277.5,262.0051990371918 277.5,262.0051990371918 302.1875,251.41401385701903 302.1875,251.41401385701903 326.875,264.8806201880334 326.875,264.8806201880334 351.5625,265.70001705908396 351.5625,265.70001705908396 376.25,270.94208313995625 376.25,270.94208313995625 400.9375,251.5048031175647 400.9375,251.5048031175647 450.3125,250.1310452478286 450.3125,250.1310452478286 475.0,250.8225056268411 475.0,250.8225056268411 549.0625,259.4282538381618 549.0625,259.4282538381618 647.8125,265.8618711329801 647.8125,265.8618711329801 771.25,257.4844459453128 771.25,257.4844459453128 845.3125,255.5352999500594 845.3125,255.5352999500594 870.0,263.0962953852529 870.0,263.0962953852529" fill="none" stroke="#1f5a9d" stroke-width="3"/>
<text x="475.0" y="496" text-anchor="middle" font-family="Arial, sans-serif" font-size="13" fill="#444">Horizon</text>
<text x="20" y="252.5" transform="rotate(-90 20 252.5)" text-anchor="middle" font-family="Arial, sans-serif" font-size="13" fill="#444">IRF beta</text>
<text x="80" y="472" text-anchor="middle" font-family="Arial, sans-serif" font-size="11" fill="#555">0</text>
<text x="870" y="472" text-anchor="middle" font-family="Arial, sans-serif" font-size="11" fill="#555">32</text>
<text x="70" y="55.0" text-anchor="end" dominant-baseline="middle" font-family="Arial, sans-serif" font-size="11" fill="#555">4.94</text>
<text x="70" y="450.0" text-anchor="end" dominant-baseline="middle" font-family="Arial, sans-serif" font-size="11" fill="#555">-4.53</text>
</svg>
